<svg width="90" height="88" viewBox="0 0 90 88" fill="none" xmlns="http://www.w3.org/2000/svg">
<path fill-rule="evenodd" clip-rule="evenodd" d="M66.6156 16.9608C68.7105 15.1605 70 12.7057 70 10C70 4.47717 64.6274 0 58 0C51.3726 0 46 4.47717 46 10C46 4.47717 41.5229 0 36 0C30.4771 0 26 4.47717 26 10C26 10.7505 26.0827 11.4816 26.2394 12.1848C24.529 10.8175 22.36 10 20 10C14.4771 10 10 14.4772 10 20C10 23.9082 12.242 27.2927 15.5099 28.9377C15.4825 28.9932 15.4553 29.0486 15.4282 29.1041C15.3665 29.2305 15.3056 29.3573 15.2454 29.4845C13.7205 28.5432 11.9237 28 10 28C4.47714 28 0 32.4772 0 38C0 43.5228 4.47714 48 10 48C10.7577 48 11.4957 47.9158 12.2051 47.7561L12.216 47.8536L12.2331 48.0027C12.1556 48.0009 12.0779 48 12 48C6.47714 48 2 52.4772 2 58C2 63.5228 6.47714 68 12 68C13.2553 68 14.4567 67.7687 15.5637 67.3463C13.3846 69.1807 12 71.9287 12 75C12 80.5228 16.4771 85 22 85C25.4734 85 28.5331 83.2292 30.3257 80.5411C31.45 84.8334 35.3552 88 40 88C45.5229 88 50 83.5228 50 78C50 77.9222 49.9991 77.8448 49.9973 77.7676C50.1234 77.7528 50.2491 77.7373 50.3747 77.7212C51.5598 81.9216 55.4204 85 60 85C65.5229 85 70 80.5228 70 75C70 74.5637 69.9721 74.1339 69.9179 73.7124C71.7572 74.5375 73.8204 75 76 75C83.732 75 90 69.1797 90 62C90 57.5209 87.5604 53.5707 83.8478 51.2329C87.4607 49.7255 90 46.1593 90 42C90 36.4772 85.5229 32 80 32C79.2811 32 78.5799 32.0759 77.9039 32.2201C77.8576 32.0947 77.8106 31.9697 77.7629 31.8451C82.445 31.0123 86 26.9213 86 22C86 16.4772 81.5229 12 76 12C72.1494 12 68.807 14.1764 67.1361 17.3662C66.9639 17.2294 66.7904 17.0944 66.6156 16.9608ZM18.4364 65.6536C18.7055 65.427 18.9625 65.1865 19.2063 64.9332L19.2598 65.0013C19.2969 65.0487 19.3342 65.0958 19.3716 65.1428L19.443 65.2323L19.5078 65.313C19.1422 65.4067 18.7846 65.5208 18.4364 65.6536Z" fill="#F3E4E3"/>
</svg>
