<?xml version="1.0" encoding="UTF-8"?>
<svg id="_レイヤー_2" data-name="レイヤー 2" xmlns="http://www.w3.org/2000/svg" viewBox="0 0 565.41 146.22">
  <defs>
    <style>
      .cls-1 {
        fill: #395152;
      }

      .cls-2 {
        fill: #ddebf1;
      }
    </style>
  </defs>
  <g id="_レイヤー_19のコピー" data-name="レイヤー 19のコピー">
    <g>
      <g>
        <path class="cls-1" d="M166.67,51.9c0,39.14-45.9,94.31-97.55,94.31-12.36,0-23.69-10.89-23.69-17.95,0-11.62,35.46-32.37,52.53-32.37,3.09,0,5.59,3.09,5.59,5s-1.62,2.35-5.44,2.94c-15.74,2.5-42.52,17.66-42.52,23.69,0,2.8,3.24,4.42,7.06,4.42,45.32,0,91.22-55.18,91.22-93.13,0-17.95-24.42-25.9-43.26-25.9-41.2,0-72.83,25.31-72.83,25.31,0,0,2.5,1.91,2.5,5.88s-1.77,4.27-8.83,13.09c-7.06,8.83-8.39,12.65-10.74,12.65s-13.24-4.85-13.24-12.36c0-6.77,8.97-18.83,23.25-28.98C50,14.83,73.24,2.76,106.79,2.76c31.34,0,59.88,18.69,59.88,49.14ZM79.57,23.66c1.91,0,10.3,5.88,10.3,11.18,0,3.68-6.77,7.36-21.19,37.52-14.42,30.02-14.71,38.4-18.39,38.4s-10.01-5-10.01-10.3c0-2.94,6.92-20.3,15.01-36.93,10.01-20.6,15.3-29.28,20.45-36.93,1.18-1.77,2.21-2.94,3.82-2.94Z"/>
        <path class="cls-1" d="M166.82,97.81c-1.62,0-3.97-3.24-3.97-5,0-1.47,1.62-3.38,2.5-4.85,10.45-16.63,15.15-24.42,15.15-26.63,0-.88-3.97-5.44-3.97-9.86s7.8-21.19,11.48-21.19,12.51,3.97,12.51,8.24-8.24,19.13-8.24,23.98,13.98,6.77,13.98,18.98c0,5.3-8.53,17.95-8.53,24.72,0,2.21,1.32,3.53,2.65,3.53,4.71,0,15.45-13.39,21.48-21.77,2.5-3.53,3.24-4.71,3.97-4.71,1.18,0,3.53,3.53,3.53,5.74s-.59,3.97-3.68,7.94c-5.59,7.36-15.6,20.6-25.45,20.6-6.62,0-16.48-6.92-16.48-17.22s8.24-21.77,8.24-25.75-5-6.62-5-6.62c0,0-4.12,9.12-15.15,25.16-1.91,2.8-3.38,4.71-5,4.71Z"/>
        <path class="cls-1" d="M220.68,93.84c0-15.3,18.25-38.7,28.84-38.7,7.06,0,18.1,6.47,18.1,12.8,0,4.86-4.41,14.57-12.21,22.07-6.18,6.03-18.83,6.33-18.83,6.33,0,0-.29,1.62-.29,3.38,0,5.88,4.56,10,9.71,10,10.01,0,21.63-13.39,27.66-21.77,2.5-3.53,3.24-4.71,3.97-4.71,1.18,0,3.53,3.53,3.53,5.74s-.59,3.97-3.68,7.94c-5.59,7.36-17.8,21.19-33.25,21.19-10.59,0-23.54-9.12-23.54-24.28ZM257.61,69.27c0-.88-.74-1.47-1.91-1.47-3.38,0-17.66,17.8-17.66,21.63,5.74,0,19.57-15.45,19.57-20.16Z"/>
        <path class="cls-1" d="M309.4,109.14c-.88-1.62-1.03-4.41-1.03-6.33v-1.91s-11.04,16.77-20.3,16.77-17.66-9.86-17.66-18.24c0-15.6,22.81-46.05,37.67-46.05,6.77,0,14.27,6.47,14.27,11.33,0,0,2.21-1.47,3.38-1.47,3.09,0,10.45,4.86,10.45,6.92s-8.98,12.95-12.51,23.84c-1.91,5.88-2.35,9.12-2.35,10.59,0,2.35,2.21,3.68,4.12,3.68,3.09,0,13.09-11.92,19.13-20.3,2.5-3.53,3.24-4.71,3.97-4.71,1.18,0,3.53,3.53,3.53,5.74s-.59,3.97-3.68,7.94c-5.59,7.36-15.01,19.86-24.28,19.86-6.47,0-12.21-3.53-14.71-7.65ZM284.39,105.75c0,2.21,1.91,3.38,3.97,3.38,3.38,0,16.04-13.68,21.48-23.25-.44-.74-.88-1.18-.88-2.21,0-2.5,5.89-7.36,5.89-14.27,0-2.21-1.77-3.53-3.68-3.53-6.92,0-26.78,27.66-26.78,39.87Z"/>
        <path class="cls-1" d="M408.86,103.55c0-11.04,17.51-33.69,17.51-37.67,0-1.03-.44-1.47-1.47-1.47-2.5,0-12.36,7.36-21.92,20.3-9.56,12.95-16.18,25.31-16.18,29.87,0,2.06-1.47,2.94-2.94,2.94-3.09,0-10.45-4.86-10.45-9.42,0-10.59,17.95-33.55,17.95-42.23,0-1.18-.44-1.77-1.47-1.77-4.71,0-17.51,13.54-25.89,25.45-8.39,11.92-10.59,21.63-10.59,24.13s-1.18,4.12-2.65,4.12c-3.83,0-11.33-3.53-11.33-11.04s2.8-15.89,9.42-28.4c7.65-14.57,9.86-20.45,10.3-22.07.59-1.91,1.18-3.53,2.5-3.53,2.21,0,11.48,5.15,11.48,8.53,0,3.09-3.97,10.3-4.85,11.77,1.03-1.32,13.98-17.22,25.16-17.22,7.06,0,11.18,6.18,11.18,8.83s-.59,6.03-.59,6.03c0,0,15.3-15.74,24.87-15.74,6.62,0,13.24,7.65,13.24,12.65,0,7.65-17.51,28.1-17.51,39.14,0,1.62,1.03,2.94,3.68,2.94,4.71,0,15.45-13.39,21.48-21.77,2.5-3.53,3.24-4.71,3.97-4.71,1.18,0,3.53,3.53,3.53,5.74s-.59,3.97-3.68,7.94c-5.59,7.36-17.21,22.07-27.52,22.07-9.12,0-17.21-7.36-17.21-15.45Z"/>
        <path class="cls-1" d="M448.44,93.84c0-15.3,18.24-38.7,28.84-38.7,7.06,0,18.1,6.47,18.1,12.8,0,4.86-4.42,14.57-12.21,22.07-6.18,6.03-18.83,6.33-18.83,6.33,0,0-.3,1.62-.3,3.38,0,5.88,4.56,10,9.71,10,10.01,0,21.63-13.39,27.66-21.77,2.5-3.53,3.24-4.71,3.97-4.71,1.18,0,3.53,3.53,3.53,5.74s-.59,3.97-3.68,7.94c-5.59,7.36-17.8,21.19-33.25,21.19-10.59,0-23.54-9.12-23.54-24.28ZM485.37,69.27c0-.88-.74-1.47-1.91-1.47-3.38,0-17.66,17.8-17.66,21.63,5.74,0,19.57-15.45,19.57-20.16Z"/>
        <path class="cls-1" d="M502.88,97.81c-1.62,0-3.97-3.24-3.97-5,0-1.47,1.62-3.38,2.5-4.85,10.45-16.63,15.15-24.42,15.15-26.63,0-.88-3.97-5.44-3.97-9.86s7.8-21.19,11.48-21.19,12.51,3.97,12.51,8.24-8.24,19.13-8.24,23.98,13.98,6.77,13.98,18.98c0,5.3-8.53,17.95-8.53,24.72,0,2.21,1.33,3.53,2.65,3.53,4.71,0,15.45-13.39,21.48-21.77,2.5-3.53,3.24-4.71,3.97-4.71,1.18,0,3.53,3.53,3.53,5.74s-.59,3.97-3.68,7.94c-5.59,7.36-15.6,20.6-25.46,20.6-6.62,0-16.48-6.92-16.48-17.22s8.24-21.77,8.24-25.75-5-6.62-5-6.62c0,0-4.12,9.12-15.15,25.16-1.91,2.8-3.39,4.71-5,4.71Z"/>
      </g>
      <g>
        <path class="cls-2" d="M158.16,48.82c0,38.88-45.61,93.7-96.91,93.7-12.28,0-23.53-10.82-23.53-17.83,0-11.55,35.23-32.16,52.19-32.16,3.07,0,5.55,3.07,5.55,4.97s-1.61,2.34-5.41,2.92c-15.64,2.49-42.24,17.54-42.24,23.53,0,2.78,3.22,4.38,7.02,4.38,45.02,0,90.63-54.82,90.63-92.53,0-17.83-24.26-25.73-42.98-25.73-40.93,0-72.36,25.14-72.36,25.14,0,0,2.48,1.9,2.48,5.85s-1.75,4.24-8.77,13.01c-7.02,8.77-8.33,12.57-10.67,12.57S0,61.83,0,54.38c0-6.72,8.92-18.71,23.1-28.8C42.25,11.99,65.34,0,98.67,0c31.13,0,59.49,18.56,59.49,48.82ZM71.63,20.76c1.9,0,10.23,5.85,10.23,11.11,0,3.65-6.72,7.31-21.05,37.27-14.32,29.82-14.62,38.15-18.27,38.15s-9.94-4.97-9.94-10.23c0-2.92,6.87-20.17,14.91-36.69,9.94-20.47,15.2-29.09,20.32-36.69,1.17-1.75,2.19-2.92,3.8-2.92Z"/>
        <path class="cls-2" d="M159.48,94.43c-1.61,0-3.95-3.22-3.95-4.97,0-1.46,1.61-3.36,2.49-4.82,10.38-16.52,15.06-24.26,15.06-26.46,0-.88-3.95-5.41-3.95-9.79s7.75-21.05,11.4-21.05,12.42,3.95,12.42,8.19-8.19,19-8.19,23.83,13.89,6.72,13.89,18.86c0,5.26-8.48,17.83-8.48,24.56,0,2.19,1.32,3.51,2.63,3.51,4.68,0,15.35-13.3,21.34-21.63,2.49-3.51,3.22-4.68,3.95-4.68,1.17,0,3.51,3.51,3.51,5.7s-.59,3.95-3.65,7.89c-5.55,7.31-15.49,20.46-25.29,20.46-6.58,0-16.37-6.87-16.37-17.1s8.19-21.63,8.19-25.58-4.97-6.58-4.97-6.58c0,0-4.09,9.06-15.06,25-1.9,2.78-3.36,4.68-4.97,4.68Z"/>
        <path class="cls-2" d="M214.15,90.48c0-15.2,18.13-38.44,28.65-38.44,7.02,0,17.98,6.43,17.98,12.72,0,4.82-4.39,14.47-12.13,21.93-6.14,5.99-18.71,6.29-18.71,6.29,0,0-.29,1.61-.29,3.36,0,5.85,4.53,9.94,9.65,9.94,9.94,0,21.49-13.3,27.48-21.63,2.49-3.51,3.22-4.68,3.95-4.68,1.17,0,3.51,3.51,3.51,5.7s-.59,3.95-3.65,7.89c-5.55,7.31-17.69,21.05-33.04,21.05-10.53,0-23.39-9.06-23.39-24.12ZM250.83,66.07c0-.88-.73-1.46-1.9-1.46-3.36,0-17.54,17.69-17.54,21.49,5.7,0,19.44-15.35,19.44-20.03Z"/>
        <path class="cls-2" d="M303.46,105.68c-.88-1.61-1.02-4.39-1.02-6.29v-1.9s-10.96,16.66-20.17,16.66-17.54-9.79-17.54-18.13c0-15.49,22.66-45.75,37.42-45.75,6.72,0,14.18,6.43,14.18,11.26,0,0,2.19-1.46,3.36-1.46,3.07,0,10.38,4.82,10.38,6.87s-8.92,12.86-12.42,23.68c-1.9,5.85-2.34,9.06-2.34,10.52,0,2.34,2.19,3.66,4.09,3.66,3.07,0,13.01-11.84,19-20.17,2.49-3.51,3.21-4.68,3.95-4.68,1.17,0,3.51,3.51,3.51,5.7s-.58,3.95-3.65,7.89c-5.55,7.31-14.91,19.73-24.12,19.73-6.43,0-12.13-3.51-14.62-7.6ZM278.61,102.32c0,2.19,1.9,3.36,3.95,3.36,3.36,0,15.93-13.59,21.34-23.1-.44-.73-.88-1.17-.88-2.19,0-2.49,5.85-7.31,5.85-14.18,0-2.19-1.75-3.51-3.65-3.51-6.87,0-26.61,27.48-26.61,39.61Z"/>
        <path class="cls-2" d="M403.44,100.13c0-10.96,17.4-33.47,17.4-37.42,0-1.02-.44-1.46-1.46-1.46-2.49,0-12.28,7.31-21.78,20.17-9.5,12.86-16.08,25.14-16.08,29.67,0,2.05-1.46,2.92-2.92,2.92-3.07,0-10.38-4.82-10.38-9.36,0-10.53,17.83-33.33,17.83-41.95,0-1.17-.44-1.76-1.46-1.76-4.68,0-17.4,13.45-25.73,25.29-8.33,11.84-10.52,21.49-10.52,23.97s-1.17,4.09-2.63,4.09c-3.8,0-11.25-3.51-11.25-10.96s2.78-15.79,9.36-28.21c7.6-14.47,9.79-20.32,10.23-21.93.58-1.9,1.17-3.51,2.49-3.51,2.19,0,11.4,5.12,11.4,8.48,0,3.07-3.95,10.23-4.83,11.69,1.02-1.32,13.89-17.1,25-17.1,7.02,0,11.11,6.14,11.11,8.77s-.58,5.99-.58,5.99c0,0,15.2-15.64,24.7-15.64,6.58,0,13.16,7.6,13.16,12.57,0,7.6-17.4,27.92-17.4,38.88,0,1.61,1.02,2.92,3.66,2.92,4.68,0,15.35-13.3,21.34-21.63,2.49-3.51,3.21-4.68,3.95-4.68,1.17,0,3.51,3.51,3.51,5.7s-.58,3.95-3.65,7.89c-5.55,7.31-17.1,21.93-27.34,21.93-9.06,0-17.1-7.31-17.1-15.35Z"/>
        <path class="cls-2" d="M443.93,90.48c0-15.2,18.13-38.44,28.65-38.44,7.02,0,17.98,6.43,17.98,12.72,0,4.82-4.38,14.47-12.13,21.93-6.14,5.99-18.71,6.29-18.71,6.29,0,0-.29,1.61-.29,3.36,0,5.85,4.53,9.94,9.65,9.94,9.94,0,21.49-13.3,27.48-21.63,2.49-3.51,3.22-4.68,3.95-4.68,1.17,0,3.51,3.51,3.51,5.7s-.59,3.95-3.66,7.89c-5.55,7.31-17.69,21.05-33.04,21.05-10.52,0-23.39-9.06-23.39-24.12ZM480.62,66.07c0-.88-.73-1.46-1.9-1.46-3.36,0-17.54,17.69-17.54,21.49,5.7,0,19.44-15.35,19.44-20.03Z"/>
        <path class="cls-2" d="M499.18,94.43c-1.61,0-3.95-3.22-3.95-4.97,0-1.46,1.61-3.36,2.49-4.82,10.38-16.52,15.06-24.26,15.06-26.46,0-.88-3.95-5.41-3.95-9.79s7.75-21.05,11.4-21.05,12.42,3.95,12.42,8.19-8.19,19-8.19,23.83,13.89,6.72,13.89,18.86c0,5.26-8.48,17.83-8.48,24.56,0,2.19,1.32,3.51,2.63,3.51,4.68,0,15.35-13.3,21.34-21.63,2.49-3.51,3.22-4.68,3.95-4.68,1.17,0,3.51,3.51,3.51,5.7s-.59,3.95-3.66,7.89c-5.55,7.31-15.49,20.46-25.29,20.46-6.58,0-16.37-6.87-16.37-17.1s8.19-21.63,8.19-25.58-4.97-6.58-4.97-6.58c0,0-4.09,9.06-15.06,25-1.9,2.78-3.36,4.68-4.97,4.68Z"/>
      </g>
    </g>
  </g>
</svg>